<svg width="720" height="420" viewBox="0 0 720 420" fill="none" xmlns="http://www.w3.org/2000/svg">
  <rect width="720" height="420" rx="28" fill="#F8FAFC"/>
  <rect x="42" y="42" width="636" height="336" rx="22" fill="white" stroke="#E2E8F0" stroke-width="2"/>
  <text x="62" y="82" fill="#2563EB" font-family="Inter, Arial, sans-serif" font-size="22" font-weight="700">Trait correlation</text>
  <text x="62" y="106" fill="#64748B" font-family="Inter, Arial, sans-serif" font-size="13">Pairwise genetic correlation across selected traits</text>

  <g transform="translate(142 134)" font-family="Inter, Arial, sans-serif">
    <text transform="rotate(-45 15 -8)" x="15" y="-8" fill="#475569" font-size="10" font-weight="700">BMI</text>
    <text transform="rotate(-45 49 -8)" x="49" y="-8" fill="#475569" font-size="10" font-weight="700">T2D</text>
    <text transform="rotate(-45 83 -8)" x="83" y="-8" fill="#475569" font-size="10" font-weight="700">CAD</text>
    <text transform="rotate(-45 117 -8)" x="117" y="-8" fill="#475569" font-size="10" font-weight="700">HTN</text>
    <text transform="rotate(-45 151 -8)" x="151" y="-8" fill="#475569" font-size="10" font-weight="700">LDL</text>
    <text transform="rotate(-45 185 -8)" x="185" y="-8" fill="#475569" font-size="10" font-weight="700">SCZ</text>

    <text x="-8" y="24" text-anchor="end" fill="#475569" font-size="10" font-weight="700">BMI</text>
    <text x="-8" y="58" text-anchor="end" fill="#475569" font-size="10" font-weight="700">T2D</text>
    <text x="-8" y="92" text-anchor="end" fill="#475569" font-size="10" font-weight="700">CAD</text>
    <text x="-8" y="126" text-anchor="end" fill="#475569" font-size="10" font-weight="700">HTN</text>
    <text x="-8" y="160" text-anchor="end" fill="#475569" font-size="10" font-weight="700">LDL</text>
    <text x="-8" y="194" text-anchor="end" fill="#475569" font-size="10" font-weight="700">SCZ</text>

    <rect x="0" y="8" width="30" height="30" rx="4" fill="#C2410C"/>
    <rect x="34" y="8" width="30" height="30" rx="4" fill="#F97316"/>
    <rect x="68" y="8" width="30" height="30" rx="4" fill="#FDBA74"/>
    <rect x="102" y="8" width="30" height="30" rx="4" fill="#F59E0B"/>
    <rect x="136" y="8" width="30" height="30" rx="4" fill="#F1F5F9"/>
    <rect x="170" y="8" width="30" height="30" rx="4" fill="#93C5FD"/>

    <rect x="0" y="42" width="30" height="30" rx="4" fill="#F97316"/>
    <rect x="34" y="42" width="30" height="30" rx="4" fill="#C2410C"/>
    <rect x="68" y="42" width="30" height="30" rx="4" fill="#FB923C"/>
    <rect x="102" y="42" width="30" height="30" rx="4" fill="#FDBA74"/>
    <rect x="136" y="42" width="30" height="30" rx="4" fill="#E2E8F0"/>
    <rect x="170" y="42" width="30" height="30" rx="4" fill="#DBEAFE"/>

    <rect x="0" y="76" width="30" height="30" rx="4" fill="#FDBA74"/>
    <rect x="34" y="76" width="30" height="30" rx="4" fill="#FB923C"/>
    <rect x="68" y="76" width="30" height="30" rx="4" fill="#C2410C"/>
    <rect x="102" y="76" width="30" height="30" rx="4" fill="#F97316"/>
    <rect x="136" y="76" width="30" height="30" rx="4" fill="#DBEAFE"/>
    <rect x="170" y="76" width="30" height="30" rx="4" fill="#60A5FA"/>

    <rect x="0" y="110" width="30" height="30" rx="4" fill="#F59E0B"/>
    <rect x="34" y="110" width="30" height="30" rx="4" fill="#FDBA74"/>
    <rect x="68" y="110" width="30" height="30" rx="4" fill="#F97316"/>
    <rect x="102" y="110" width="30" height="30" rx="4" fill="#C2410C"/>
    <rect x="136" y="110" width="30" height="30" rx="4" fill="#E2E8F0"/>
    <rect x="170" y="110" width="30" height="30" rx="4" fill="#BFDBFE"/>

    <rect x="0" y="144" width="30" height="30" rx="4" fill="#F1F5F9"/>
    <rect x="34" y="144" width="30" height="30" rx="4" fill="#E2E8F0"/>
    <rect x="68" y="144" width="30" height="30" rx="4" fill="#DBEAFE"/>
    <rect x="102" y="144" width="30" height="30" rx="4" fill="#E2E8F0"/>
    <rect x="136" y="144" width="30" height="30" rx="4" fill="#C2410C"/>
    <rect x="170" y="144" width="30" height="30" rx="4" fill="#EFF6FF"/>

    <rect x="0" y="178" width="30" height="30" rx="4" fill="#93C5FD"/>
    <rect x="34" y="178" width="30" height="30" rx="4" fill="#DBEAFE"/>
    <rect x="68" y="178" width="30" height="30" rx="4" fill="#60A5FA"/>
    <rect x="102" y="178" width="30" height="30" rx="4" fill="#BFDBFE"/>
    <rect x="136" y="178" width="30" height="30" rx="4" fill="#EFF6FF"/>
    <rect x="170" y="178" width="30" height="30" rx="4" fill="#C2410C"/>
  </g>

  <text x="420" y="150" fill="#475569" font-family="Inter, Arial, sans-serif" font-size="11" font-weight="700">rg</text>
  <text x="410" y="174" fill="#94A3B8" font-family="Inter, Arial, sans-serif" font-size="9">positive</text>
  <rect x="434" y="184" width="16" height="112" rx="8" fill="url(#corrbar)"/>
  <text x="410" y="310" fill="#94A3B8" font-family="Inter, Arial, sans-serif" font-size="9">negative</text>
  <text x="458" y="196" fill="#94A3B8" font-family="Inter, Arial, sans-serif" font-size="9">1.0</text>
  <text x="458" y="244" fill="#94A3B8" font-family="Inter, Arial, sans-serif" font-size="9">0.0</text>
  <text x="458" y="292" fill="#94A3B8" font-family="Inter, Arial, sans-serif" font-size="9">-1.0</text>

  <rect x="402" y="326" width="198" height="34" rx="12" fill="#FFF7ED" stroke="#FED7AA"/>
  <text x="420" y="347" fill="#C2410C" font-family="Inter, Arial, sans-serif" font-size="10" font-weight="700">diagonal cells are self-correlation</text>

  <defs>
    <linearGradient id="corrbar" x1="442" y1="184" x2="442" y2="296" gradientUnits="userSpaceOnUse">
      <stop stop-color="#C2410C"/>
      <stop offset="0.5" stop-color="#F8FAFC"/>
      <stop offset="1" stop-color="#2563EB"/>
    </linearGradient>
  </defs>
</svg>
