<svg width="960" height="420" viewBox="0 0 960 420" fill="none" xmlns="http://www.w3.org/2000/svg">
  <rect width="960" height="420" rx="32" fill="#F8FAFC"/>
  <rect x="24" y="24" width="912" height="372" rx="26" fill="white" stroke="#E2E8F0" stroke-width="2"/>
  <text x="54" y="72" fill="#2563EB" font-family="Arial, Helvetica, sans-serif" font-size="24" font-weight="700">Analysis workflow</text>

  <path d="M118 228C178 186 252 174 322 180C404 188 462 272 548 270C656 266 724 154 822 134" stroke="#CBD5E1" stroke-width="16" stroke-linecap="round"/>
  <path d="M118 228C178 186 252 174 322 180C404 188 462 272 548 270C656 266 724 154 822 134" stroke="#5B8DEF" stroke-opacity="0.9" stroke-width="4" stroke-linecap="round"/>
  <polygon points="816,122 844,132 820,148" fill="#5B8DEF"/>

  <circle cx="116" cy="228" r="38" fill="#2563EB" fill-opacity="0.12" stroke="#93C5FD" stroke-width="3"/>
  <circle cx="116" cy="228" r="13" fill="#2563EB"/>
  <text x="116" y="233" text-anchor="middle" fill="white" font-family="Arial, Helvetica, sans-serif" font-size="15" font-weight="700">1</text>
  <rect x="58" y="292" width="142" height="54" rx="16" fill="#F8FAFC" stroke="#BFDBFE" stroke-width="2"/>
  <text x="129" y="325" text-anchor="middle" fill="#0F172A" font-family="Arial, Helvetica, sans-serif" font-size="18" font-weight="700">GWAS</text>

  <circle cx="318" cy="176" r="38" fill="#EA580C" fill-opacity="0.12" stroke="#FDBA74" stroke-width="3"/>
  <circle cx="318" cy="176" r="13" fill="#B45309"/>
  <text x="318" y="181" text-anchor="middle" fill="white" font-family="Arial, Helvetica, sans-serif" font-size="15" font-weight="700">2</text>
  <rect x="230" y="236" width="176" height="62" rx="16" fill="#FFF7ED" stroke="#FED7AA" stroke-width="2"/>
  <text x="318" y="266" text-anchor="middle" fill="#0F172A" font-family="Arial, Helvetica, sans-serif" font-size="17" font-weight="700">LoF + GeneBayes</text>
  <text x="318" y="286" text-anchor="middle" fill="#B45309" font-family="Arial, Helvetica, sans-serif" font-size="12">posterior</text>

  <circle cx="544" cy="276" r="38" fill="#0F766E" fill-opacity="0.12" stroke="#99F6E4" stroke-width="3"/>
  <circle cx="544" cy="276" r="13" fill="#0F766E"/>
  <text x="544" y="281" text-anchor="middle" fill="white" font-family="Arial, Helvetica, sans-serif" font-size="15" font-weight="700">3</text>
  <rect x="458" y="326" width="172" height="54" rx="16" fill="#F0FDFA" stroke="#CCFBF1" stroke-width="2"/>
  <text x="544" y="359" text-anchor="middle" fill="#0F172A" font-family="Arial, Helvetica, sans-serif" font-size="18" font-weight="700">Perturb-seq cNMF</text>

  <circle cx="822" cy="132" r="38" fill="#475569" fill-opacity="0.12" stroke="#CBD5E1" stroke-width="3"/>
  <circle cx="822" cy="132" r="13" fill="#334155"/>
  <text x="822" y="137" text-anchor="middle" fill="white" font-family="Arial, Helvetica, sans-serif" font-size="15" font-weight="700">4</text>
  <rect x="718" y="194" width="208" height="62" rx="16" fill="#F8FAFC" stroke="#CBD5E1" stroke-width="2"/>
  <text x="822" y="224" text-anchor="middle" fill="#0F172A" font-family="Arial, Helvetica, sans-serif" font-size="17" font-weight="700">Posterior × program</text>
  <text x="822" y="244" text-anchor="middle" fill="#475569" font-family="Arial, Helvetica, sans-serif" font-size="12">association</text>
</svg>
