<svg width="720" height="420" viewBox="0 0 720 420" fill="none" xmlns="http://www.w3.org/2000/svg">
  <rect width="720" height="420" rx="28" fill="#F8FAFC"/>
  <rect x="42" y="42" width="636" height="336" rx="22" fill="white" stroke="#E2E8F0" stroke-width="2"/>
  <text x="62" y="82" fill="#0F766E" font-family="Inter, Arial, sans-serif" font-size="22" font-weight="700">Program × regulator scatter</text>
  <text x="62" y="106" fill="#64748B" font-family="Inter, Arial, sans-serif" font-size="13">Program burden vs regulator correlation</text>

  <!-- axes -->
  <line x1="124" y1="332" x2="612" y2="332" stroke="#CBD5E1" stroke-width="1.5"/>
  <line x1="124" y1="332" x2="124" y2="128" stroke="#CBD5E1" stroke-width="1.5"/>
  <!-- zero axes -->
  <line x1="368" y1="128" x2="368" y2="332" stroke="#94A3B8" stroke-width="1.2" stroke-dasharray="6 5"/>
  <line x1="124" y1="230" x2="612" y2="230" stroke="#94A3B8" stroke-width="1.2" stroke-dasharray="6 5"/>
  <!-- labels -->
  <text x="540" y="354" fill="#475569" font-family="Inter, Arial, sans-serif" font-size="12">program burden</text>
  <text transform="rotate(-90 86 244)" x="86" y="244" fill="#475569" font-family="Inter, Arial, sans-serif" font-size="12">regulator corr.</text>

  <!-- Center cluster near origin: gray, r=3 -->
  <circle cx="352" cy="236" r="3" fill="#94A3B8" fill-opacity="0.4"/>
  <circle cx="374" cy="224" r="3" fill="#94A3B8" fill-opacity="0.4"/>
  <circle cx="360" cy="242" r="3" fill="#94A3B8" fill-opacity="0.4"/>
  <circle cx="381" cy="234" r="3" fill="#94A3B8" fill-opacity="0.4"/>
  <circle cx="355" cy="218" r="3" fill="#94A3B8" fill-opacity="0.4"/>
  <circle cx="385" cy="240" r="3" fill="#94A3B8" fill-opacity="0.38"/>
  <circle cx="342" cy="228" r="3" fill="#94A3B8" fill-opacity="0.4"/>
  <circle cx="365" cy="248" r="3" fill="#94A3B8" fill-opacity="0.38"/>
  <circle cx="348" cy="212" r="3" fill="#94A3B8" fill-opacity="0.38"/>
  <circle cx="392" cy="226" r="3" fill="#94A3B8" fill-opacity="0.38"/>
  <circle cx="336" cy="238" r="3" fill="#94A3B8" fill-opacity="0.36"/>
  <circle cx="373" cy="252" r="3" fill="#94A3B8" fill-opacity="0.36"/>

  <!-- Q1 upper-right: teal, r=3 base, r=3.5 strong -->
  <circle cx="404" cy="216" r="3" fill="#5EEAD4" fill-opacity="0.6"/>
  <circle cx="420" cy="204" r="3" fill="#2DD4BF" fill-opacity="0.68"/>
  <circle cx="438" cy="196" r="3" fill="#14B8A6" fill-opacity="0.72"/>
  <circle cx="396" cy="200" r="3" fill="#5EEAD4" fill-opacity="0.62"/>
  <circle cx="416" cy="220" r="3" fill="#99F6E4" fill-opacity="0.55"/>
  <circle cx="452" cy="208" r="3" fill="#2DD4BF" fill-opacity="0.66"/>
  <circle cx="464" cy="188" r="3" fill="#14B8A6" fill-opacity="0.75"/>
  <circle cx="428" cy="218" r="3" fill="#5EEAD4" fill-opacity="0.6"/>
  <circle cx="492" cy="172" r="3.5" fill="#0F766E" fill-opacity="0.85"/>
  <circle cx="534" cy="178" r="3.5" fill="#0D9488" fill-opacity="0.82"/>
  <circle cx="472" cy="160" r="3.5" fill="#0F766E" fill-opacity="0.88"/>
  <circle cx="554" cy="194" r="3" fill="#14B8A6" fill-opacity="0.75"/>
  <circle cx="512" cy="152" r="4" fill="#0F766E" fill-opacity="0.9"/>
  <circle cx="576" cy="184" r="3" fill="#0D9488" fill-opacity="0.78"/>
  <circle cx="446" cy="174" r="3" fill="#14B8A6" fill-opacity="0.72"/>
  <circle cx="504" cy="166" r="3.5" fill="#0F766E" fill-opacity="0.85"/>
  <circle cx="540" cy="196" r="3" fill="#2DD4BF" fill-opacity="0.7"/>
  <circle cx="486" cy="186" r="3" fill="#14B8A6" fill-opacity="0.78"/>

  <!-- Q2 upper-left: orange/amber, r=3 -->
  <circle cx="326" cy="214" r="3" fill="#FDBA74" fill-opacity="0.58"/>
  <circle cx="308" cy="198" r="3" fill="#FB923C" fill-opacity="0.65"/>
  <circle cx="288" cy="210" r="3" fill="#FDBA74" fill-opacity="0.58"/>
  <circle cx="270" cy="188" r="3" fill="#F59E0B" fill-opacity="0.72"/>
  <circle cx="316" cy="222" r="3" fill="#FCD34D" fill-opacity="0.5"/>
  <circle cx="254" cy="200" r="3" fill="#FB923C" fill-opacity="0.68"/>
  <circle cx="218" cy="176" r="3.5" fill="#F59E0B" fill-opacity="0.8"/>
  <circle cx="238" cy="164" r="3.5" fill="#EA580C" fill-opacity="0.82"/>
  <circle cx="192" cy="184" r="3" fill="#FB923C" fill-opacity="0.72"/>
  <circle cx="174" cy="196" r="3" fill="#FDBA74" fill-opacity="0.62"/>
  <circle cx="296" cy="204" r="3" fill="#FB923C" fill-opacity="0.65"/>
  <circle cx="206" cy="192" r="3" fill="#F59E0B" fill-opacity="0.7"/>

  <!-- Q3 lower-left: blue, r=3 -->
  <circle cx="326" cy="248" r="3" fill="#93C5FD" fill-opacity="0.58"/>
  <circle cx="310" cy="256" r="3" fill="#60A5FA" fill-opacity="0.65"/>
  <circle cx="292" cy="250" r="3" fill="#93C5FD" fill-opacity="0.58"/>
  <circle cx="338" cy="254" r="3" fill="#BFDBFE" fill-opacity="0.5"/>
  <circle cx="274" cy="264" r="3" fill="#60A5FA" fill-opacity="0.68"/>
  <circle cx="314" cy="268" r="3" fill="#93C5FD" fill-opacity="0.6"/>
  <circle cx="258" cy="272" r="3" fill="#60A5FA" fill-opacity="0.65"/>
  <circle cx="230" cy="286" r="3.5" fill="#2563EB" fill-opacity="0.82"/>
  <circle cx="202" cy="296" r="3.5" fill="#1D4ED8" fill-opacity="0.85"/>
  <circle cx="248" cy="278" r="3" fill="#3B82F6" fill-opacity="0.75"/>
  <circle cx="180" cy="302" r="3" fill="#2563EB" fill-opacity="0.78"/>
  <circle cx="168" cy="288" r="3" fill="#60A5FA" fill-opacity="0.68"/>
  <circle cx="286" cy="260" r="3" fill="#93C5FD" fill-opacity="0.6"/>
  <circle cx="240" cy="270" r="3" fill="#60A5FA" fill-opacity="0.65"/>
  <circle cx="216" cy="292" r="3" fill="#3B82F6" fill-opacity="0.75"/>

  <!-- Q4 lower-right: blue-ish, r=3 -->
  <circle cx="396" cy="246" r="3" fill="#93C5FD" fill-opacity="0.55"/>
  <circle cx="414" cy="256" r="3" fill="#60A5FA" fill-opacity="0.6"/>
  <circle cx="432" cy="250" r="3" fill="#93C5FD" fill-opacity="0.55"/>
  <circle cx="450" cy="262" r="3" fill="#3B82F6" fill-opacity="0.65"/>
  <circle cx="386" cy="258" r="3" fill="#BFDBFE" fill-opacity="0.5"/>
  <circle cx="478" cy="276" r="3.5" fill="#2563EB" fill-opacity="0.78"/>
  <circle cx="510" cy="288" r="3" fill="#3B82F6" fill-opacity="0.72"/>
  <circle cx="496" cy="266" r="3" fill="#2563EB" fill-opacity="0.76"/>
  <circle cx="540" cy="280" r="3" fill="#60A5FA" fill-opacity="0.68"/>
  <circle cx="466" cy="270" r="3" fill="#3B82F6" fill-opacity="0.68"/>
  <circle cx="424" cy="264" r="3" fill="#60A5FA" fill-opacity="0.6"/>

  <!-- legend -->
  <circle cx="148" cy="364" r="3.5" fill="#0F766E"/>
  <text x="158" y="368" fill="#475569" font-family="Inter, Arial, sans-serif" font-size="11">concordant +</text>
  <circle cx="260" cy="364" r="3.5" fill="#F59E0B"/>
  <text x="270" y="368" fill="#475569" font-family="Inter, Arial, sans-serif" font-size="11">mixed</text>
  <circle cx="330" cy="364" r="3.5" fill="#2563EB"/>
  <text x="340" y="368" fill="#475569" font-family="Inter, Arial, sans-serif" font-size="11">concordant -</text>
  <circle cx="440" cy="364" r="3.5" fill="#94A3B8"/>
  <text x="450" y="368" fill="#475569" font-family="Inter, Arial, sans-serif" font-size="11">ambiguous</text>
</svg>
